<svg xmlns="http://www.w3.org/2000/svg" width="64" height="80" viewBox="0 0 64 80" shape-rendering="crispEdges">
  <rect x="17" y="35" width="23" height="1" fill="#FFFFFF"/>
  <rect x="40" y="35" width="7" height="1" fill="#E2E8EC"/>
  <rect x="17" y="36" width="23" height="1" fill="#FFFFFF"/>
  <rect x="40" y="36" width="7" height="1" fill="#E2E8EC"/>
  <rect x="17" y="37" width="23" height="1" fill="#FFFFFF"/>
  <rect x="40" y="37" width="7" height="1" fill="#E2E8EC"/>
  <rect x="17" y="38" width="23" height="1" fill="#FFFFFF"/>
  <rect x="40" y="38" width="7" height="1" fill="#E2E8EC"/>
  <rect x="22" y="39" width="20" height="1" fill="#FFFFFF"/>
  <rect x="22" y="40" width="20" height="1" fill="#FFFFFF"/>
  <rect x="22" y="41" width="20" height="1" fill="#FFFFFF"/>
  <rect x="19" y="42" width="3" height="1" fill="#E2E8EC"/>
  <rect x="22" y="42" width="20" height="1" fill="#4A3524"/>
  <rect x="42" y="42" width="3" height="1" fill="#E2E8EC"/>
  <rect x="19" y="43" width="3" height="1" fill="#E2E8EC"/>
  <rect x="22" y="43" width="20" height="1" fill="#4A3524"/>
  <rect x="42" y="43" width="3" height="1" fill="#E2E8EC"/>
  <rect x="19" y="44" width="3" height="1" fill="#E2E8EC"/>
  <rect x="22" y="44" width="20" height="1" fill="#4A3524"/>
  <rect x="42" y="44" width="3" height="1" fill="#E2E8EC"/>
  <rect x="22" y="45" width="15" height="1" fill="#DDA87E"/>
  <rect x="37" y="45" width="5" height="1" fill="#C08E64"/>
  <rect x="22" y="46" width="15" height="1" fill="#DDA87E"/>
  <rect x="37" y="46" width="5" height="1" fill="#C08E64"/>
  <rect x="22" y="47" width="15" height="1" fill="#DDA87E"/>
  <rect x="37" y="47" width="5" height="1" fill="#C08E64"/>
  <rect x="22" y="48" width="3" height="1" fill="#DDA87E"/>
  <rect x="25" y="48" width="3" height="1" fill="#2B2622"/>
  <rect x="28" y="48" width="8" height="1" fill="#DDA87E"/>
  <rect x="36" y="48" width="3" height="1" fill="#2B2622"/>
  <rect x="39" y="48" width="3" height="1" fill="#C08E64"/>
  <rect x="22" y="49" width="3" height="1" fill="#DDA87E"/>
  <rect x="25" y="49" width="3" height="1" fill="#2B2622"/>
  <rect x="28" y="49" width="8" height="1" fill="#DDA87E"/>
  <rect x="36" y="49" width="3" height="1" fill="#2B2622"/>
  <rect x="39" y="49" width="3" height="1" fill="#C08E64"/>
  <rect x="22" y="50" width="3" height="1" fill="#DDA87E"/>
  <rect x="25" y="50" width="3" height="1" fill="#2B2622"/>
  <rect x="28" y="50" width="8" height="1" fill="#DDA87E"/>
  <rect x="36" y="50" width="3" height="1" fill="#2B2622"/>
  <rect x="39" y="50" width="3" height="1" fill="#C08E64"/>
  <rect x="22" y="51" width="15" height="1" fill="#DDA87E"/>
  <rect x="37" y="51" width="5" height="1" fill="#C08E64"/>
  <rect x="22" y="52" width="15" height="1" fill="#DDA87E"/>
  <rect x="37" y="52" width="5" height="1" fill="#C08E64"/>
  <rect x="22" y="53" width="15" height="1" fill="#DDA87E"/>
  <rect x="37" y="53" width="5" height="1" fill="#C08E64"/>
  <rect x="15" y="54" width="29" height="1" fill="#F2F4F6"/>
  <rect x="44" y="54" width="5" height="1" fill="#D2D8DE"/>
  <rect x="15" y="55" width="34" height="1" fill="#C2352B"/>
  <rect x="8" y="56" width="8" height="1" fill="#F2F4F6"/>
  <rect x="16" y="56" width="32" height="1" fill="#C2352B"/>
  <rect x="48" y="56" width="8" height="1" fill="#F2F4F6"/>
  <rect x="8" y="57" width="8" height="1" fill="#F2F4F6"/>
  <rect x="16" y="57" width="32" height="1" fill="#C2352B"/>
  <rect x="48" y="57" width="8" height="1" fill="#F2F4F6"/>
  <rect x="8" y="58" width="12" height="1" fill="#F2F4F6"/>
  <rect x="20" y="58" width="24" height="1" fill="#C2352B"/>
  <rect x="44" y="58" width="4" height="1" fill="#D2D8DE"/>
  <rect x="48" y="58" width="8" height="1" fill="#F2F4F6"/>
  <rect x="8" y="59" width="12" height="1" fill="#F2F4F6"/>
  <rect x="20" y="59" width="24" height="1" fill="#C2352B"/>
  <rect x="44" y="59" width="4" height="1" fill="#D2D8DE"/>
  <rect x="48" y="59" width="8" height="1" fill="#F2F4F6"/>
  <rect x="8" y="60" width="12" height="1" fill="#F2F4F6"/>
  <rect x="20" y="60" width="24" height="1" fill="#C2352B"/>
  <rect x="44" y="60" width="4" height="1" fill="#D2D8DE"/>
  <rect x="48" y="60" width="8" height="1" fill="#F2F4F6"/>
  <rect x="8" y="61" width="12" height="1" fill="#F2F4F6"/>
  <rect x="20" y="61" width="24" height="1" fill="#C2352B"/>
  <rect x="44" y="61" width="4" height="1" fill="#D2D8DE"/>
  <rect x="48" y="61" width="8" height="1" fill="#F2F4F6"/>
  <rect x="8" y="62" width="12" height="1" fill="#F2F4F6"/>
  <rect x="20" y="62" width="24" height="1" fill="#C2352B"/>
  <rect x="44" y="62" width="4" height="1" fill="#D2D8DE"/>
  <rect x="48" y="62" width="8" height="1" fill="#F2F4F6"/>
  <rect x="8" y="63" width="8" height="1" fill="#DDA87E"/>
  <rect x="16" y="63" width="4" height="1" fill="#F2F4F6"/>
  <rect x="20" y="63" width="24" height="1" fill="#C2352B"/>
  <rect x="44" y="63" width="4" height="1" fill="#D2D8DE"/>
  <rect x="48" y="63" width="8" height="1" fill="#DDA87E"/>
  <rect x="8" y="64" width="8" height="1" fill="#DDA87E"/>
  <rect x="16" y="64" width="4" height="1" fill="#F2F4F6"/>
  <rect x="20" y="64" width="24" height="1" fill="#C2352B"/>
  <rect x="44" y="64" width="4" height="1" fill="#D2D8DE"/>
  <rect x="48" y="64" width="8" height="1" fill="#DDA87E"/>
  <rect x="8" y="65" width="8" height="1" fill="#DDA87E"/>
  <rect x="16" y="65" width="4" height="1" fill="#F2F4F6"/>
  <rect x="20" y="65" width="24" height="1" fill="#C2352B"/>
  <rect x="44" y="65" width="4" height="1" fill="#D2D8DE"/>
  <rect x="48" y="65" width="8" height="1" fill="#DDA87E"/>
  <rect x="8" y="66" width="8" height="1" fill="#DDA87E"/>
  <rect x="16" y="66" width="4" height="1" fill="#F2F4F6"/>
  <rect x="20" y="66" width="24" height="1" fill="#C2352B"/>
  <rect x="44" y="66" width="4" height="1" fill="#D2D8DE"/>
  <rect x="48" y="66" width="8" height="1" fill="#DDA87E"/>
  <rect x="15" y="67" width="5" height="1" fill="#F2F4F6"/>
  <rect x="20" y="67" width="24" height="1" fill="#C2352B"/>
  <rect x="44" y="67" width="5" height="1" fill="#D2D8DE"/>
  <rect x="15" y="68" width="5" height="1" fill="#F2F4F6"/>
  <rect x="20" y="68" width="24" height="1" fill="#C2352B"/>
  <rect x="44" y="68" width="5" height="1" fill="#D2D8DE"/>
  <rect x="15" y="69" width="5" height="1" fill="#F2F4F6"/>
  <rect x="20" y="69" width="24" height="1" fill="#C2352B"/>
  <rect x="44" y="69" width="5" height="1" fill="#D2D8DE"/>
  <rect x="20" y="70" width="9" height="1" fill="#4A5160"/>
  <rect x="35" y="70" width="9" height="1" fill="#4A5160"/>
  <rect x="20" y="71" width="9" height="1" fill="#4A5160"/>
  <rect x="35" y="71" width="9" height="1" fill="#4A5160"/>
  <rect x="20" y="72" width="9" height="1" fill="#4A5160"/>
  <rect x="35" y="72" width="9" height="1" fill="#4A5160"/>
  <rect x="20" y="73" width="9" height="1" fill="#4A5160"/>
  <rect x="35" y="73" width="9" height="1" fill="#4A5160"/>
  <rect x="20" y="74" width="9" height="1" fill="#4A5160"/>
  <rect x="35" y="74" width="9" height="1" fill="#4A5160"/>
  <rect x="20" y="75" width="9" height="1" fill="#4A5160"/>
  <rect x="35" y="75" width="9" height="1" fill="#4A5160"/>
  <rect x="19" y="76" width="10" height="1" fill="#241F1B"/>
  <rect x="35" y="76" width="10" height="1" fill="#241F1B"/>
  <rect x="19" y="77" width="10" height="1" fill="#241F1B"/>
  <rect x="35" y="77" width="10" height="1" fill="#241F1B"/>
  <rect x="19" y="78" width="10" height="1" fill="#241F1B"/>
  <rect x="35" y="78" width="10" height="1" fill="#241F1B"/>
  <rect x="19" y="79" width="10" height="1" fill="#241F1B"/>
  <rect x="35" y="79" width="10" height="1" fill="#241F1B"/>
</svg>
