<svg xmlns="http://www.w3.org/2000/svg" width="64" height="40" viewBox="0 0 64 40" shape-rendering="crispEdges">
  <rect x="0" y="0" width="8" height="1" fill="#F2F0EA"/>
  <rect x="8" y="0" width="8" height="1" fill="#1C1A17"/>
  <rect x="16" y="0" width="8" height="1" fill="#F2F0EA"/>
  <rect x="24" y="0" width="7" height="1" fill="#1C1A17"/>
  <rect x="31" y="0" width="2" height="1" fill="#B9B5AC"/>
  <rect x="33" y="0" width="7" height="1" fill="#F2F0EA"/>
  <rect x="40" y="0" width="8" height="1" fill="#1C1A17"/>
  <rect x="48" y="0" width="8" height="1" fill="#F2F0EA"/>
  <rect x="56" y="0" width="8" height="1" fill="#1C1A17"/>
  <rect x="0" y="1" width="8" height="1" fill="#F2F0EA"/>
  <rect x="8" y="1" width="8" height="1" fill="#1C1A17"/>
  <rect x="16" y="1" width="8" height="1" fill="#F2F0EA"/>
  <rect x="24" y="1" width="7" height="1" fill="#1C1A17"/>
  <rect x="31" y="1" width="2" height="1" fill="#B9B5AC"/>
  <rect x="33" y="1" width="7" height="1" fill="#F2F0EA"/>
  <rect x="40" y="1" width="8" height="1" fill="#1C1A17"/>
  <rect x="48" y="1" width="8" height="1" fill="#F2F0EA"/>
  <rect x="56" y="1" width="8" height="1" fill="#1C1A17"/>
  <rect x="0" y="2" width="8" height="1" fill="#F2F0EA"/>
  <rect x="8" y="2" width="8" height="1" fill="#1C1A17"/>
  <rect x="16" y="2" width="8" height="1" fill="#F2F0EA"/>
  <rect x="24" y="2" width="7" height="1" fill="#1C1A17"/>
  <rect x="31" y="2" width="2" height="1" fill="#B9B5AC"/>
  <rect x="33" y="2" width="7" height="1" fill="#F2F0EA"/>
  <rect x="40" y="2" width="8" height="1" fill="#1C1A17"/>
  <rect x="48" y="2" width="8" height="1" fill="#F2F0EA"/>
  <rect x="56" y="2" width="8" height="1" fill="#1C1A17"/>
  <rect x="0" y="3" width="8" height="1" fill="#F2F0EA"/>
  <rect x="8" y="3" width="8" height="1" fill="#1C1A17"/>
  <rect x="16" y="3" width="8" height="1" fill="#F2F0EA"/>
  <rect x="24" y="3" width="7" height="1" fill="#1C1A17"/>
  <rect x="31" y="3" width="2" height="1" fill="#B9B5AC"/>
  <rect x="33" y="3" width="7" height="1" fill="#F2F0EA"/>
  <rect x="40" y="3" width="8" height="1" fill="#1C1A17"/>
  <rect x="48" y="3" width="8" height="1" fill="#F2F0EA"/>
  <rect x="56" y="3" width="8" height="1" fill="#1C1A17"/>
  <rect x="0" y="4" width="8" height="1" fill="#F2F0EA"/>
  <rect x="8" y="4" width="8" height="1" fill="#1C1A17"/>
  <rect x="16" y="4" width="8" height="1" fill="#F2F0EA"/>
  <rect x="24" y="4" width="7" height="1" fill="#1C1A17"/>
  <rect x="31" y="4" width="2" height="1" fill="#B9B5AC"/>
  <rect x="33" y="4" width="7" height="1" fill="#F2F0EA"/>
  <rect x="40" y="4" width="8" height="1" fill="#1C1A17"/>
  <rect x="48" y="4" width="8" height="1" fill="#F2F0EA"/>
  <rect x="56" y="4" width="8" height="1" fill="#1C1A17"/>
  <rect x="0" y="5" width="8" height="1" fill="#F2F0EA"/>
  <rect x="8" y="5" width="8" height="1" fill="#1C1A17"/>
  <rect x="16" y="5" width="8" height="1" fill="#F2F0EA"/>
  <rect x="24" y="5" width="7" height="1" fill="#1C1A17"/>
  <rect x="31" y="5" width="2" height="1" fill="#B9B5AC"/>
  <rect x="33" y="5" width="7" height="1" fill="#F2F0EA"/>
  <rect x="40" y="5" width="8" height="1" fill="#1C1A17"/>
  <rect x="48" y="5" width="8" height="1" fill="#F2F0EA"/>
  <rect x="56" y="5" width="8" height="1" fill="#1C1A17"/>
  <rect x="0" y="6" width="8" height="1" fill="#F2F0EA"/>
  <rect x="8" y="6" width="8" height="1" fill="#1C1A17"/>
  <rect x="16" y="6" width="8" height="1" fill="#F2F0EA"/>
  <rect x="24" y="6" width="7" height="1" fill="#1C1A17"/>
  <rect x="31" y="6" width="2" height="1" fill="#B9B5AC"/>
  <rect x="33" y="6" width="7" height="1" fill="#F2F0EA"/>
  <rect x="40" y="6" width="8" height="1" fill="#1C1A17"/>
  <rect x="48" y="6" width="8" height="1" fill="#F2F0EA"/>
  <rect x="56" y="6" width="8" height="1" fill="#1C1A17"/>
  <rect x="0" y="7" width="8" height="1" fill="#F2F0EA"/>
  <rect x="8" y="7" width="8" height="1" fill="#1C1A17"/>
  <rect x="16" y="7" width="8" height="1" fill="#F2F0EA"/>
  <rect x="24" y="7" width="7" height="1" fill="#1C1A17"/>
  <rect x="31" y="7" width="2" height="1" fill="#B9B5AC"/>
  <rect x="33" y="7" width="7" height="1" fill="#F2F0EA"/>
  <rect x="40" y="7" width="8" height="1" fill="#1C1A17"/>
  <rect x="48" y="7" width="8" height="1" fill="#F2F0EA"/>
  <rect x="56" y="7" width="8" height="1" fill="#1C1A17"/>
  <rect x="0" y="8" width="8" height="1" fill="#1C1A17"/>
  <rect x="8" y="8" width="8" height="1" fill="#F2F0EA"/>
  <rect x="16" y="8" width="8" height="1" fill="#1C1A17"/>
  <rect x="24" y="8" width="7" height="1" fill="#F2F0EA"/>
  <rect x="31" y="8" width="2" height="1" fill="#B9B5AC"/>
  <rect x="33" y="8" width="7" height="1" fill="#1C1A17"/>
  <rect x="40" y="8" width="8" height="1" fill="#F2F0EA"/>
  <rect x="48" y="8" width="8" height="1" fill="#1C1A17"/>
  <rect x="56" y="8" width="8" height="1" fill="#F2F0EA"/>
  <rect x="0" y="9" width="8" height="1" fill="#1C1A17"/>
  <rect x="8" y="9" width="8" height="1" fill="#F2F0EA"/>
  <rect x="16" y="9" width="8" height="1" fill="#1C1A17"/>
  <rect x="24" y="9" width="7" height="1" fill="#F2F0EA"/>
  <rect x="31" y="9" width="2" height="1" fill="#B9B5AC"/>
  <rect x="33" y="9" width="7" height="1" fill="#1C1A17"/>
  <rect x="40" y="9" width="8" height="1" fill="#F2F0EA"/>
  <rect x="48" y="9" width="8" height="1" fill="#1C1A17"/>
  <rect x="56" y="9" width="8" height="1" fill="#F2F0EA"/>
  <rect x="0" y="10" width="8" height="1" fill="#1C1A17"/>
  <rect x="8" y="10" width="8" height="1" fill="#F2F0EA"/>
  <rect x="16" y="10" width="8" height="1" fill="#1C1A17"/>
  <rect x="24" y="10" width="7" height="1" fill="#F2F0EA"/>
  <rect x="31" y="10" width="2" height="1" fill="#B9B5AC"/>
  <rect x="33" y="10" width="7" height="1" fill="#1C1A17"/>
  <rect x="40" y="10" width="8" height="1" fill="#F2F0EA"/>
  <rect x="48" y="10" width="8" height="1" fill="#1C1A17"/>
  <rect x="56" y="10" width="8" height="1" fill="#F2F0EA"/>
  <rect x="0" y="11" width="8" height="1" fill="#1C1A17"/>
  <rect x="8" y="11" width="8" height="1" fill="#F2F0EA"/>
  <rect x="16" y="11" width="8" height="1" fill="#1C1A17"/>
  <rect x="24" y="11" width="7" height="1" fill="#F2F0EA"/>
  <rect x="31" y="11" width="2" height="1" fill="#B9B5AC"/>
  <rect x="33" y="11" width="7" height="1" fill="#1C1A17"/>
  <rect x="40" y="11" width="8" height="1" fill="#F2F0EA"/>
  <rect x="48" y="11" width="8" height="1" fill="#1C1A17"/>
  <rect x="56" y="11" width="8" height="1" fill="#F2F0EA"/>
  <rect x="0" y="12" width="8" height="1" fill="#1C1A17"/>
  <rect x="8" y="12" width="8" height="1" fill="#F2F0EA"/>
  <rect x="16" y="12" width="8" height="1" fill="#1C1A17"/>
  <rect x="24" y="12" width="7" height="1" fill="#F2F0EA"/>
  <rect x="31" y="12" width="2" height="1" fill="#B9B5AC"/>
  <rect x="33" y="12" width="7" height="1" fill="#1C1A17"/>
  <rect x="40" y="12" width="8" height="1" fill="#F2F0EA"/>
  <rect x="48" y="12" width="8" height="1" fill="#1C1A17"/>
  <rect x="56" y="12" width="8" height="1" fill="#F2F0EA"/>
  <rect x="0" y="13" width="8" height="1" fill="#1C1A17"/>
  <rect x="8" y="13" width="8" height="1" fill="#F2F0EA"/>
  <rect x="16" y="13" width="8" height="1" fill="#1C1A17"/>
  <rect x="24" y="13" width="7" height="1" fill="#F2F0EA"/>
  <rect x="31" y="13" width="2" height="1" fill="#B9B5AC"/>
  <rect x="33" y="13" width="7" height="1" fill="#1C1A17"/>
  <rect x="40" y="13" width="8" height="1" fill="#F2F0EA"/>
  <rect x="48" y="13" width="8" height="1" fill="#1C1A17"/>
  <rect x="56" y="13" width="8" height="1" fill="#F2F0EA"/>
  <rect x="0" y="14" width="8" height="1" fill="#1C1A17"/>
  <rect x="8" y="14" width="8" height="1" fill="#F2F0EA"/>
  <rect x="16" y="14" width="8" height="1" fill="#1C1A17"/>
  <rect x="24" y="14" width="7" height="1" fill="#F2F0EA"/>
  <rect x="31" y="14" width="2" height="1" fill="#B9B5AC"/>
  <rect x="33" y="14" width="7" height="1" fill="#1C1A17"/>
  <rect x="40" y="14" width="8" height="1" fill="#F2F0EA"/>
  <rect x="48" y="14" width="8" height="1" fill="#1C1A17"/>
  <rect x="56" y="14" width="8" height="1" fill="#F2F0EA"/>
  <rect x="0" y="15" width="8" height="1" fill="#1C1A17"/>
  <rect x="8" y="15" width="8" height="1" fill="#F2F0EA"/>
  <rect x="16" y="15" width="8" height="1" fill="#1C1A17"/>
  <rect x="24" y="15" width="7" height="1" fill="#F2F0EA"/>
  <rect x="31" y="15" width="2" height="1" fill="#B9B5AC"/>
  <rect x="33" y="15" width="7" height="1" fill="#1C1A17"/>
  <rect x="40" y="15" width="8" height="1" fill="#F2F0EA"/>
  <rect x="48" y="15" width="8" height="1" fill="#1C1A17"/>
  <rect x="56" y="15" width="8" height="1" fill="#F2F0EA"/>
  <rect x="0" y="16" width="8" height="1" fill="#F2F0EA"/>
  <rect x="8" y="16" width="8" height="1" fill="#1C1A17"/>
  <rect x="16" y="16" width="8" height="1" fill="#F2F0EA"/>
  <rect x="24" y="16" width="7" height="1" fill="#1C1A17"/>
  <rect x="31" y="16" width="2" height="1" fill="#B9B5AC"/>
  <rect x="33" y="16" width="7" height="1" fill="#F2F0EA"/>
  <rect x="40" y="16" width="8" height="1" fill="#1C1A17"/>
  <rect x="48" y="16" width="8" height="1" fill="#F2F0EA"/>
  <rect x="56" y="16" width="8" height="1" fill="#1C1A17"/>
  <rect x="0" y="17" width="8" height="1" fill="#F2F0EA"/>
  <rect x="8" y="17" width="8" height="1" fill="#1C1A17"/>
  <rect x="16" y="17" width="8" height="1" fill="#F2F0EA"/>
  <rect x="24" y="17" width="7" height="1" fill="#1C1A17"/>
  <rect x="31" y="17" width="2" height="1" fill="#B9B5AC"/>
  <rect x="33" y="17" width="7" height="1" fill="#F2F0EA"/>
  <rect x="40" y="17" width="8" height="1" fill="#1C1A17"/>
  <rect x="48" y="17" width="8" height="1" fill="#F2F0EA"/>
  <rect x="56" y="17" width="8" height="1" fill="#1C1A17"/>
  <rect x="0" y="18" width="8" height="1" fill="#F2F0EA"/>
  <rect x="8" y="18" width="8" height="1" fill="#1C1A17"/>
  <rect x="16" y="18" width="8" height="1" fill="#F2F0EA"/>
  <rect x="24" y="18" width="7" height="1" fill="#1C1A17"/>
  <rect x="31" y="18" width="2" height="1" fill="#B9B5AC"/>
  <rect x="33" y="18" width="7" height="1" fill="#F2F0EA"/>
  <rect x="40" y="18" width="8" height="1" fill="#1C1A17"/>
  <rect x="48" y="18" width="8" height="1" fill="#F2F0EA"/>
  <rect x="56" y="18" width="8" height="1" fill="#1C1A17"/>
  <rect x="0" y="19" width="8" height="1" fill="#F2F0EA"/>
  <rect x="8" y="19" width="8" height="1" fill="#1C1A17"/>
  <rect x="16" y="19" width="8" height="1" fill="#F2F0EA"/>
  <rect x="24" y="19" width="7" height="1" fill="#1C1A17"/>
  <rect x="31" y="19" width="2" height="1" fill="#B9B5AC"/>
  <rect x="33" y="19" width="7" height="1" fill="#F2F0EA"/>
  <rect x="40" y="19" width="8" height="1" fill="#1C1A17"/>
  <rect x="48" y="19" width="8" height="1" fill="#F2F0EA"/>
  <rect x="56" y="19" width="8" height="1" fill="#1C1A17"/>
  <rect x="0" y="20" width="8" height="1" fill="#F2F0EA"/>
  <rect x="8" y="20" width="8" height="1" fill="#1C1A17"/>
  <rect x="16" y="20" width="8" height="1" fill="#F2F0EA"/>
  <rect x="24" y="20" width="7" height="1" fill="#1C1A17"/>
  <rect x="31" y="20" width="2" height="1" fill="#B9B5AC"/>
  <rect x="33" y="20" width="7" height="1" fill="#F2F0EA"/>
  <rect x="40" y="20" width="8" height="1" fill="#1C1A17"/>
  <rect x="48" y="20" width="8" height="1" fill="#F2F0EA"/>
  <rect x="56" y="20" width="8" height="1" fill="#1C1A17"/>
  <rect x="0" y="21" width="8" height="1" fill="#F2F0EA"/>
  <rect x="8" y="21" width="8" height="1" fill="#1C1A17"/>
  <rect x="16" y="21" width="8" height="1" fill="#F2F0EA"/>
  <rect x="24" y="21" width="7" height="1" fill="#1C1A17"/>
  <rect x="31" y="21" width="2" height="1" fill="#B9B5AC"/>
  <rect x="33" y="21" width="7" height="1" fill="#F2F0EA"/>
  <rect x="40" y="21" width="8" height="1" fill="#1C1A17"/>
  <rect x="48" y="21" width="8" height="1" fill="#F2F0EA"/>
  <rect x="56" y="21" width="8" height="1" fill="#1C1A17"/>
  <rect x="0" y="22" width="8" height="1" fill="#F2F0EA"/>
  <rect x="8" y="22" width="8" height="1" fill="#1C1A17"/>
  <rect x="16" y="22" width="8" height="1" fill="#F2F0EA"/>
  <rect x="24" y="22" width="7" height="1" fill="#1C1A17"/>
  <rect x="31" y="22" width="2" height="1" fill="#B9B5AC"/>
  <rect x="33" y="22" width="7" height="1" fill="#F2F0EA"/>
  <rect x="40" y="22" width="8" height="1" fill="#1C1A17"/>
  <rect x="48" y="22" width="8" height="1" fill="#F2F0EA"/>
  <rect x="56" y="22" width="8" height="1" fill="#1C1A17"/>
  <rect x="0" y="23" width="8" height="1" fill="#F2F0EA"/>
  <rect x="8" y="23" width="8" height="1" fill="#1C1A17"/>
  <rect x="16" y="23" width="8" height="1" fill="#F2F0EA"/>
  <rect x="24" y="23" width="7" height="1" fill="#1C1A17"/>
  <rect x="31" y="23" width="2" height="1" fill="#B9B5AC"/>
  <rect x="33" y="23" width="7" height="1" fill="#F2F0EA"/>
  <rect x="40" y="23" width="8" height="1" fill="#1C1A17"/>
  <rect x="48" y="23" width="8" height="1" fill="#F2F0EA"/>
  <rect x="56" y="23" width="8" height="1" fill="#1C1A17"/>
  <rect x="0" y="24" width="8" height="1" fill="#1C1A17"/>
  <rect x="8" y="24" width="8" height="1" fill="#F2F0EA"/>
  <rect x="16" y="24" width="8" height="1" fill="#1C1A17"/>
  <rect x="24" y="24" width="7" height="1" fill="#F2F0EA"/>
  <rect x="31" y="24" width="2" height="1" fill="#B9B5AC"/>
  <rect x="33" y="24" width="7" height="1" fill="#1C1A17"/>
  <rect x="40" y="24" width="8" height="1" fill="#F2F0EA"/>
  <rect x="48" y="24" width="8" height="1" fill="#1C1A17"/>
  <rect x="56" y="24" width="8" height="1" fill="#F2F0EA"/>
  <rect x="0" y="25" width="8" height="1" fill="#1C1A17"/>
  <rect x="8" y="25" width="8" height="1" fill="#F2F0EA"/>
  <rect x="16" y="25" width="8" height="1" fill="#1C1A17"/>
  <rect x="24" y="25" width="7" height="1" fill="#F2F0EA"/>
  <rect x="31" y="25" width="2" height="1" fill="#B9B5AC"/>
  <rect x="33" y="25" width="7" height="1" fill="#1C1A17"/>
  <rect x="40" y="25" width="8" height="1" fill="#F2F0EA"/>
  <rect x="48" y="25" width="8" height="1" fill="#1C1A17"/>
  <rect x="56" y="25" width="8" height="1" fill="#F2F0EA"/>
  <rect x="0" y="26" width="8" height="1" fill="#1C1A17"/>
  <rect x="8" y="26" width="8" height="1" fill="#F2F0EA"/>
  <rect x="16" y="26" width="8" height="1" fill="#1C1A17"/>
  <rect x="24" y="26" width="7" height="1" fill="#F2F0EA"/>
  <rect x="31" y="26" width="2" height="1" fill="#B9B5AC"/>
  <rect x="33" y="26" width="7" height="1" fill="#1C1A17"/>
  <rect x="40" y="26" width="8" height="1" fill="#F2F0EA"/>
  <rect x="48" y="26" width="8" height="1" fill="#1C1A17"/>
  <rect x="56" y="26" width="8" height="1" fill="#F2F0EA"/>
  <rect x="0" y="27" width="8" height="1" fill="#1C1A17"/>
  <rect x="8" y="27" width="8" height="1" fill="#F2F0EA"/>
  <rect x="16" y="27" width="8" height="1" fill="#1C1A17"/>
  <rect x="24" y="27" width="7" height="1" fill="#F2F0EA"/>
  <rect x="31" y="27" width="2" height="1" fill="#B9B5AC"/>
  <rect x="33" y="27" width="7" height="1" fill="#1C1A17"/>
  <rect x="40" y="27" width="8" height="1" fill="#F2F0EA"/>
  <rect x="48" y="27" width="8" height="1" fill="#1C1A17"/>
  <rect x="56" y="27" width="8" height="1" fill="#F2F0EA"/>
  <rect x="0" y="28" width="8" height="1" fill="#1C1A17"/>
  <rect x="8" y="28" width="8" height="1" fill="#F2F0EA"/>
  <rect x="16" y="28" width="8" height="1" fill="#1C1A17"/>
  <rect x="24" y="28" width="7" height="1" fill="#F2F0EA"/>
  <rect x="31" y="28" width="2" height="1" fill="#B9B5AC"/>
  <rect x="33" y="28" width="7" height="1" fill="#1C1A17"/>
  <rect x="40" y="28" width="8" height="1" fill="#F2F0EA"/>
  <rect x="48" y="28" width="8" height="1" fill="#1C1A17"/>
  <rect x="56" y="28" width="8" height="1" fill="#F2F0EA"/>
  <rect x="0" y="29" width="8" height="1" fill="#1C1A17"/>
  <rect x="8" y="29" width="8" height="1" fill="#F2F0EA"/>
  <rect x="16" y="29" width="8" height="1" fill="#1C1A17"/>
  <rect x="24" y="29" width="7" height="1" fill="#F2F0EA"/>
  <rect x="31" y="29" width="2" height="1" fill="#B9B5AC"/>
  <rect x="33" y="29" width="7" height="1" fill="#1C1A17"/>
  <rect x="40" y="29" width="8" height="1" fill="#F2F0EA"/>
  <rect x="48" y="29" width="8" height="1" fill="#1C1A17"/>
  <rect x="56" y="29" width="8" height="1" fill="#F2F0EA"/>
  <rect x="0" y="30" width="8" height="1" fill="#1C1A17"/>
  <rect x="8" y="30" width="8" height="1" fill="#F2F0EA"/>
  <rect x="16" y="30" width="8" height="1" fill="#1C1A17"/>
  <rect x="24" y="30" width="7" height="1" fill="#F2F0EA"/>
  <rect x="31" y="30" width="2" height="1" fill="#B9B5AC"/>
  <rect x="33" y="30" width="7" height="1" fill="#1C1A17"/>
  <rect x="40" y="30" width="8" height="1" fill="#F2F0EA"/>
  <rect x="48" y="30" width="8" height="1" fill="#1C1A17"/>
  <rect x="56" y="30" width="8" height="1" fill="#F2F0EA"/>
  <rect x="0" y="31" width="8" height="1" fill="#1C1A17"/>
  <rect x="8" y="31" width="8" height="1" fill="#F2F0EA"/>
  <rect x="16" y="31" width="8" height="1" fill="#1C1A17"/>
  <rect x="24" y="31" width="7" height="1" fill="#F2F0EA"/>
  <rect x="31" y="31" width="2" height="1" fill="#B9B5AC"/>
  <rect x="33" y="31" width="7" height="1" fill="#1C1A17"/>
  <rect x="40" y="31" width="8" height="1" fill="#F2F0EA"/>
  <rect x="48" y="31" width="8" height="1" fill="#1C1A17"/>
  <rect x="56" y="31" width="8" height="1" fill="#F2F0EA"/>
  <rect x="0" y="32" width="8" height="1" fill="#F2F0EA"/>
  <rect x="8" y="32" width="8" height="1" fill="#1C1A17"/>
  <rect x="16" y="32" width="8" height="1" fill="#F2F0EA"/>
  <rect x="24" y="32" width="7" height="1" fill="#1C1A17"/>
  <rect x="31" y="32" width="2" height="1" fill="#B9B5AC"/>
  <rect x="33" y="32" width="7" height="1" fill="#F2F0EA"/>
  <rect x="40" y="32" width="8" height="1" fill="#1C1A17"/>
  <rect x="48" y="32" width="8" height="1" fill="#F2F0EA"/>
  <rect x="56" y="32" width="8" height="1" fill="#1C1A17"/>
  <rect x="0" y="33" width="8" height="1" fill="#F2F0EA"/>
  <rect x="8" y="33" width="8" height="1" fill="#1C1A17"/>
  <rect x="16" y="33" width="8" height="1" fill="#F2F0EA"/>
  <rect x="24" y="33" width="7" height="1" fill="#1C1A17"/>
  <rect x="31" y="33" width="2" height="1" fill="#B9B5AC"/>
  <rect x="33" y="33" width="7" height="1" fill="#F2F0EA"/>
  <rect x="40" y="33" width="8" height="1" fill="#1C1A17"/>
  <rect x="48" y="33" width="8" height="1" fill="#F2F0EA"/>
  <rect x="56" y="33" width="8" height="1" fill="#1C1A17"/>
  <rect x="0" y="34" width="8" height="1" fill="#F2F0EA"/>
  <rect x="8" y="34" width="8" height="1" fill="#1C1A17"/>
  <rect x="16" y="34" width="8" height="1" fill="#F2F0EA"/>
  <rect x="24" y="34" width="7" height="1" fill="#1C1A17"/>
  <rect x="31" y="34" width="2" height="1" fill="#B9B5AC"/>
  <rect x="33" y="34" width="7" height="1" fill="#F2F0EA"/>
  <rect x="40" y="34" width="8" height="1" fill="#1C1A17"/>
  <rect x="48" y="34" width="8" height="1" fill="#F2F0EA"/>
  <rect x="56" y="34" width="8" height="1" fill="#1C1A17"/>
  <rect x="0" y="35" width="8" height="1" fill="#F2F0EA"/>
  <rect x="8" y="35" width="8" height="1" fill="#1C1A17"/>
  <rect x="16" y="35" width="8" height="1" fill="#F2F0EA"/>
  <rect x="24" y="35" width="7" height="1" fill="#1C1A17"/>
  <rect x="31" y="35" width="2" height="1" fill="#B9B5AC"/>
  <rect x="33" y="35" width="7" height="1" fill="#F2F0EA"/>
  <rect x="40" y="35" width="8" height="1" fill="#1C1A17"/>
  <rect x="48" y="35" width="8" height="1" fill="#F2F0EA"/>
  <rect x="56" y="35" width="8" height="1" fill="#1C1A17"/>
  <rect x="0" y="36" width="8" height="1" fill="#F2F0EA"/>
  <rect x="8" y="36" width="8" height="1" fill="#1C1A17"/>
  <rect x="16" y="36" width="8" height="1" fill="#F2F0EA"/>
  <rect x="24" y="36" width="7" height="1" fill="#1C1A17"/>
  <rect x="31" y="36" width="2" height="1" fill="#B9B5AC"/>
  <rect x="33" y="36" width="7" height="1" fill="#F2F0EA"/>
  <rect x="40" y="36" width="8" height="1" fill="#1C1A17"/>
  <rect x="48" y="36" width="8" height="1" fill="#F2F0EA"/>
  <rect x="56" y="36" width="8" height="1" fill="#1C1A17"/>
  <rect x="0" y="37" width="8" height="1" fill="#F2F0EA"/>
  <rect x="8" y="37" width="8" height="1" fill="#1C1A17"/>
  <rect x="16" y="37" width="8" height="1" fill="#F2F0EA"/>
  <rect x="24" y="37" width="7" height="1" fill="#1C1A17"/>
  <rect x="31" y="37" width="2" height="1" fill="#B9B5AC"/>
  <rect x="33" y="37" width="7" height="1" fill="#F2F0EA"/>
  <rect x="40" y="37" width="8" height="1" fill="#1C1A17"/>
  <rect x="48" y="37" width="8" height="1" fill="#F2F0EA"/>
  <rect x="56" y="37" width="8" height="1" fill="#1C1A17"/>
  <rect x="0" y="38" width="8" height="1" fill="#F2F0EA"/>
  <rect x="8" y="38" width="8" height="1" fill="#1C1A17"/>
  <rect x="16" y="38" width="8" height="1" fill="#F2F0EA"/>
  <rect x="24" y="38" width="7" height="1" fill="#1C1A17"/>
  <rect x="31" y="38" width="2" height="1" fill="#B9B5AC"/>
  <rect x="33" y="38" width="7" height="1" fill="#F2F0EA"/>
  <rect x="40" y="38" width="8" height="1" fill="#1C1A17"/>
  <rect x="48" y="38" width="8" height="1" fill="#F2F0EA"/>
  <rect x="56" y="38" width="8" height="1" fill="#1C1A17"/>
  <rect x="0" y="39" width="8" height="1" fill="#F2F0EA"/>
  <rect x="8" y="39" width="8" height="1" fill="#1C1A17"/>
  <rect x="16" y="39" width="8" height="1" fill="#F2F0EA"/>
  <rect x="24" y="39" width="7" height="1" fill="#1C1A17"/>
  <rect x="31" y="39" width="2" height="1" fill="#B9B5AC"/>
  <rect x="33" y="39" width="7" height="1" fill="#F2F0EA"/>
  <rect x="40" y="39" width="8" height="1" fill="#1C1A17"/>
  <rect x="48" y="39" width="8" height="1" fill="#F2F0EA"/>
  <rect x="56" y="39" width="8" height="1" fill="#1C1A17"/>
</svg>
